<?xml version="1.0" encoding="utf-8"?>
<!-- Generator: Adobe Illustrator 22.1.0, SVG Export Plug-In . SVG Version: 6.00 Build 0)  -->
<svg version="1.1" id="Layer_1" xmlns="http://www.w3.org/2000/svg" xmlns:xlink="http://www.w3.org/1999/xlink" x="0px" y="0px"
	 viewBox="0 0 1000 1000" style="enable-background:new 0 0 1000 1000;" xml:space="preserve">
<g transform="translate(0.000000,511.000000) scale(0.100000,-0.100000)">
	<path d="M6177.4,4228.6c-885.9-72.3-1365-119.8-1445.5-142.5c-66.1-18.6-194.1-72.3-285-119.8c-161.1-80.5-225.1-142.5-2255-2170.4
		C1041.7,647.8,100-300,100-312.4c0-10.3,850.8-871.5,1889.5-1910.2L3879-4112.1l2085.7,2085.7
		C7829.5-161.7,8178.4,199.7,8172.3,267.9c0,10.3-117.7,76.4-258.1,146.6l-256.1,126l-39.2-64c-22.7-37.2-871.4-896.2-1885.4-1910.2
		l-1844.1-1842L2406.7-1793.1L926-312.4l1873,1870.9c1730.5,1726.4,1885.4,1875.1,1999,1924.6c117.7,49.6,192,57.8,1443.5,159
		c1263.8,103.3,1321.6,105.3,1408.3,72.3c47.5-18.6,121.8-70.2,161.1-113.6c121.8-136.3,126-169.3,76.4-805.4
		c-62-795-72.3-710.4,107.4-879.7c148.7-144.6,344.9-297.4,380-297.4c20.7,0,140.4,1550.8,134.2,1759.4
		c-6.2,254-130.1,522.5-326.3,695.9c-123.9,109.5-351.1,223-481.2,239.6c-51.6,6.2-117.7,14.5-146.6,18.6
		C7525.9,4336,6906.4,4288.5,6177.4,4228.6z"/>
	<path d="M8890.9,3233.3c-6.2-8.3-14.5-152.8-22.7-324.2c-8.3-169.3-18.6-346.9-24.8-392.4c-10.3-74.3,0-97.1,88.8-218.9
		c355.2-483.2,454.3-1020.1,212.7-1160.5c-154.9-92.9-446-53.7-757.9,97.1c-410.9,202.4-817.8,584.4-1059.4,995.4l-78.5,136.3
		l37.2,64c200.3,342.8-35.1,776.5-421.3,778.5c-179.6,0-276.7-37.2-388.2-146.6c-208.6-206.5-206.5-528.7,4.1-737.2
		c35.1-35.1,80.5-70.2,103.3-76.4c22.7-8.3,70.2-74.3,113.6-165.2c136.3-282.9,311.8-522.5,596.8-807.4
		c510.1-510.1,1024.3-778.5,1550.8-807.4c353.1-20.6,594.7,64,793,272.6c390.3,410.9,340.7,1113.1-128,1823.4
		C9310.1,2867.7,8921.9,3286.9,8890.9,3233.3z"/>
</g>
<path d="M340,559.5l-15.1,15.1l-27.3-18.3c-1.2-0.7-3.4-2.3-6.7-4.7c-3.3-2.4-6-4.4-8.1-6.1c1.4,1.7,3,3.9,4.9,6.6
	c1.9,2.7,3.6,5.2,5.2,7.5c1.6,2.3,7.8,11.7,18.8,28.2L296.5,603l-64-40.6l12.3-12.3l31.4,21.1c7,4.6,12.4,8.5,16.2,11.5
	c-2.2-2.7-5-6.5-8.4-11.4s-6.2-9-8.4-12.4l-15.6-24l11.8-11.8l23.8,15.7c3.9,2.5,8.2,5.4,13.1,8.9c4.9,3.4,8.4,6.1,10.7,7.9
	c-2.4-2.9-6.2-8.3-11.5-16.1L287,507.9l12.3-12.3L340,559.5z"/>
<path d="M385.8,513.7l-28.1,28.1l-52.3-52.3l28.1-28.1l11.3,11.3L329.5,488l8.2,8.2l14.2-14.2l11.3,11.3l-14.2,14.2l9.9,9.9
	l15.3-15.3L385.8,513.7z"/>
<path d="M422.1,477.4l-28.1,28.1l-52.3-52.3l28.1-28.1l11.3,11.3l-15.3,15.3l8.2,8.2l14.2-14.2l11.3,11.3l-14.2,14.2l9.9,9.9
	l15.3-15.3L422.1,477.4z"/>
<path d="M470.8,428.7l-14.4,14.4L427,432.5l-1.3,6.3l17.5,17.5l-12.8,12.8l-52.3-52.3l12.8-12.8l22.7,22.7
	c-0.8-2.1-1.7-5.6-2.8-10.6l-6.1-26l14-14l8.5,38.3L470.8,428.7z"/>
<path d="M475.9,423.6l-52.3-52.3l12.8-12.8l40.9,40.9l18.2-18.2l11.4,11.4L475.9,423.6z"/>
<path d="M498.4,335.3l-11.2-27.5l13.8-13.8l16.3,47.4l20.4,20.4l-12.9,12.9l-20-20L457,337.8l13.9-13.9L498.4,335.3z"/>
<path d="M400.5,601.4c13,13,19.4,26.6,19.3,40.8c-0.1,14.2-6.7,27.7-19.6,40.7L375,708l-77.8-77.8l26.9-26.9
	c12.5-12.5,25.3-18.9,38.5-19.4C375.8,583.5,388.4,589.3,400.5,601.4z M379.4,624c-7.1-7.1-13.8-11-20.1-11.6
	c-6.3-0.6-12.3,1.9-18,7.7l-6.1,6.1l43.6,43.6l4.7-4.7c6.4-6.4,9.2-12.9,8.5-19.6C391.2,638.7,387,631.6,379.4,624z"/>
<path d="M501.2,581.8L455,628l-77.8-77.8l46.2-46.2l16.9,16.9L415.1,546l12.2,12.2l23.3-23.3l16.9,16.9l-23.3,23.3l14.7,14.7
	l25.2-25.2L501.2,581.8z"/>
<path d="M562.6,520.4l-18.4-10.8l-25.3,25.3l10.6,18.5l-23.1,23.1L453.7,473l28.1-28.1l103.9,52.4L562.6,520.4z M522.6,496.8
	l-16.1-9.4c-3.6-2.1-8.2-4.8-13.9-8.2c-5.6-3.4-9.6-5.9-11.9-7.5c1.5,2.1,3.8,5.7,7.1,10.8c3.2,5.1,9.3,15.4,18.3,30.8L522.6,496.8z
	"/>
<path d="M594,489l-77.8-77.8l21-21l60.8,60.8l30-30l17,17L594,489z"/>
</svg>
