<?xml version="1.0" encoding="utf-8"?>
<!-- Svg Vector Icons : http://www.onlinewebfonts.com/icon -->
<!DOCTYPE svg PUBLIC "-//W3C//DTD SVG 1.1//EN" "http://www.w3.org/Graphics/SVG/1.1/DTD/svg11.dtd">
<svg version="1.1" xmlns="http://www.w3.org/2000/svg" xmlns:xlink="http://www.w3.org/1999/xlink" x="0px" y="0px" viewBox="0 0 1000 1000" enable-background="new 0 0 1000 1000" xml:space="preserve">
<metadata> Svg Vector Icons : http://www.onlinewebfonts.com/icon </metadata>
<g><g transform="translate(0.000000,511.000000) scale(0.100000,-0.100000)"><path d="M6177.4,4228.6c-885.9-72.3-1365-119.8-1445.5-142.5c-66.1-18.6-194.1-72.3-285-119.8c-161.1-80.5-225.1-142.5-2255-2170.4C1041.7,647.8,100-300,100-312.4c0-10.3,850.8-871.5,1889.5-1910.2L3879-4112.1l2085.7,2085.7C7829.5-161.7,8178.4,199.7,8172.3,267.9c0,10.3-117.7,76.4-258.1,146.6l-256.1,126l-39.2-64c-22.7-37.2-871.4-896.2-1885.4-1910.2l-1844.1-1842L2406.7-1793.1L926-312.4l1873,1870.9c1730.5,1726.4,1885.4,1875.1,1999,1924.6c117.7,49.6,192,57.8,1443.5,159c1263.8,103.3,1321.6,105.3,1408.3,72.3c47.5-18.6,121.8-70.2,161.1-113.6c121.8-136.3,126-169.3,76.4-805.4c-62-795-72.3-710.4,107.4-879.7c148.7-144.6,344.9-297.4,380-297.4c20.7,0,140.4,1550.8,134.2,1759.4c-6.2,254-130.1,522.5-326.3,695.9c-123.9,109.5-351.1,223-481.2,239.6c-51.6,6.2-117.7,14.5-146.6,18.6C7525.9,4336,6906.4,4288.5,6177.4,4228.6z"/><path d="M8890.9,3233.3c-6.2-8.3-14.5-152.8-22.7-324.2c-8.3-169.3-18.6-346.9-24.8-392.4c-10.3-74.3,0-97.1,88.8-218.9c355.2-483.2,454.3-1020.1,212.7-1160.5c-154.9-92.9-446-53.7-757.9,97.1c-410.9,202.4-817.8,584.4-1059.4,995.4l-78.5,136.3l37.2,64c200.3,342.8-35.1,776.5-421.3,778.5c-179.6,0-276.7-37.2-388.2-146.6c-208.6-206.5-206.5-528.7,4.1-737.2c35.1-35.1,80.5-70.2,103.3-76.4c22.7-8.3,70.2-74.3,113.6-165.2c136.3-282.9,311.8-522.5,596.8-807.4c510.1-510.1,1024.3-778.5,1550.8-807.4c353.1-20.6,594.7,64,793,272.6c390.3,410.9,340.7,1113.1-128,1823.4C9310.1,2867.7,8921.9,3286.9,8890.9,3233.3z"/><path d="M4994.1,1484.2l-299.4-299.4l367.6-365.5l365.5-367.6l309.8,309.8l309.8,309.8l-92.9,92.9l-92.9,92.9l-196.2-196.2l-196.2-196.2l-45.4,47.5l-47.5,45.4l171.4,171.4l169.3,169.3l-86.7,88.8l-88.8,86.7l-169.3-169.3l-171.4-171.4l-45.4,47.5l-47.5,45.4l192.1,192l190,192.1l-88.8,86.7c-47.5,47.5-92.9,86.7-99.1,86.7C5297.7,1783.6,5159.4,1649.4,4994.1,1484.2z"/><path d="M4178.5,668.5l-103.3-103.3l367.6-367.6l365.5-365.5l272.6,272.6l274.6,274.6l-92.9,92.9l-90.9,92.9L5004.5,400l-165.2-165.2l-268.5,268.5C4424.2,652,4298.2,771.7,4292,771.7S4234.2,724.2,4178.5,668.5z"/><path d="M3666.3,156.3c-53.7-53.7-97.1-107.4-97.1-115.6c0-18.6,431.6-964.4,448.1-983c4.1-4.1,55.8,39.2,113.6,99.1l107.4,105.3l-33,70.2l-33,70.2L4292-477.6l117.7,117.7l68.1-35.1l68.1-35.1l109.5,109.5c61.9,59.9,105.3,115.6,95,123.9c-18.6,18.6-949.9,452.2-972.6,452.2C3769.6,255.5,3720,210,3666.3,156.3z M4075.2-169.9l136.3-76.4l-66.1-68.1c-37.2-39.2-74.3-70.2-80.5-70.2c-10.3,0-144.6,258.1-144.6,278.8C3920.3-87.3,3938.9-95.6,4075.2-169.9z"/><path d="M3081.9-426c-179.7-101.2-276.7-249.9-276.7-417.1c0-161.1,119.8-285,272.6-285c39.2,0,148.7,41.3,268.5,103.3c109.4,55.8,214.8,97.1,231.3,90.9c88.8-33.1,41.3-173.5-78.5-231.3c-47.5-24.8-64-22.7-103.3,2.1c-45.4,31-51.6,26.9-159-80.5c-121.8-121.8-121.8-123.9,16.5-185.8c92.9-41.3,165.2-35.1,285,20.6c206.5,97.1,382,353.1,355.2,522.5c-24.8,144.6-146.6,260.2-274.7,258.1c-90.9-2.1-148.7-24.8-342.8-134.2c-95-53.7-152.8-74.3-181.7-66.1c-57.8,18.6-51.6,76.4,14.5,144.6c45.4,43.4,70.2,53.7,121.8,45.4c55.8-10.3,78.5,2.1,163.1,88.8l99.1,101.2l-70.2,41.3C3321.5-345.5,3210-351.7,3081.9-426z"/></g></g>
</svg>